<?xml version="1.0" encoding="utf-8"?>
<!-- Generator: Adobe Illustrator 16.0.0, SVG Export Plug-In . SVG Version: 6.00 Build 0)  -->
<!DOCTYPE svg PUBLIC "-//W3C//DTD SVG 1.1//EN" "http://www.w3.org/Graphics/SVG/1.1/DTD/svg11.dtd">
<svg version="1.1" id="Layer_1" xmlns="http://www.w3.org/2000/svg" xmlns:xlink="http://www.w3.org/1999/xlink" x="0px" y="0px"
	 width="1400px" height="980px" viewBox="0 0 1400 980" enable-background="new 0 0 1400 980" xml:space="preserve">
<g>
	<g>
		<g>
			<path fill="#92C6E1" d="M848.241,448.139l20.813-21.003c0,0,37.529,29.316,42.215,58.159L848.241,448.139z"/>
			<polygon fill="#3C2870" points="870.233,434.797 852.963,451.418 857.428,453.806 			"/>
			<polygon fill="#3C2870" points="877.095,441.657 859.822,458.279 864.286,460.666 			"/>
			<polygon fill="#3C2870" points="884.408,447.679 867.136,464.301 871.6,466.688 			"/>
			<polygon fill="#3C2870" points="891.091,455.275 873.818,471.897 878.283,474.284 			"/>
			<polygon fill="#3C2870" points="896.402,461.211 879.13,477.832 883.595,480.219 			"/>
			<polygon fill="#3C2870" points="899.725,464.329 882.455,480.95 886.919,483.337 			"/>
			<polygon fill="#92C6E1" points="914.634,488.085 954.148,474.147 948.912,521.435 911.27,501.441 			"/>
			<polygon fill="#3C2870" points="950.181,479.991 911.27,491.59 911.27,494.428 			"/>
			<polygon fill="#3C2870" points="950.181,488.085 911.27,495.283 911.27,498.122 			"/>
			<polygon fill="#3C2870" points="945.274,511.791 911.27,499.444 911.27,501.441 			"/>
			<polygon fill="#3C2870" points="949.465,497.574 913.489,498.122 913.489,500.251 			"/>
			<path fill="#534699" d="M831.038,444.761c0,0,34.468,0.524,60.022,21.651c25.557,21.126,25.557,21.126,25.557,21.126
				s2.977,8.095,0,17.349c0,0-18.68,14.237-27.481,23.385c-12.364,12.853-34.32,18.058-43.282,17.91
				c-8.964-0.147-10.062-16.042-10.062-16.042L831.038,444.761z"/>
			<circle fill="#6BA6CE" cx="910.885" cy="493.224" r="2.7"/>
			<circle fill="#6BA6CE" cx="877.487" cy="505.467" r="2.7"/>
			<circle fill="#6BA6CE" cx="893.889" cy="496.53" r="2.7"/>
			<path fill="#6BA6CE" d="M908.186,501c0,2.467-2,4.467-4.47,4.467c-2.467,0-4.467-2-4.467-4.467c0-2.47,2-4.47,4.467-4.47
				C906.186,496.53,908.186,498.53,908.186,501z"/>
			<circle fill="#6BA6CE" cx="894.935" cy="505.624" r="1.046"/>
			<circle fill="#6BA6CE" cx="883.897" cy="513.217" r="3.711"/>
			<path fill="#3C2870" d="M889.136,528.272c8.802-9.147,27.481-23.385,27.481-23.385c0.509-1.581,0.832-3.126,1.039-4.604
				c-11.367,1.906-25.41,10.359-32.535,16.852c-8.347,7.605-23.313,6.174-23.313,6.174l-6.525-0.793l-17.365,10.326l8.494,13.33
				C855.681,546.115,877.007,540.879,889.136,528.272z"/>
			<polygon fill="#3C2870" points="857.428,492.831 890.164,486.547 890.494,508.601 861.727,507.864 			"/>
			<polygon fill="#92C6E1" points="857.428,489.854 889.136,483.571 889.136,505.624 861.727,504.888 			"/>
			<path fill="#3C2870" d="M833.586,445.863c-0.851,0.036-1.644,0.116-2.476,0.165l4.682,84.112c0,0,1.098,15.895,10.062,16.042
				c2.287,0.039,5.728-0.46,9.703-1.382C886.767,492.106,833.586,445.863,833.586,445.863z"/>
			<path fill="#D9D843" d="M736.402,455.336c0,0,2.632,6.131,1.041,11.532c-1.592,5.4-8.538,2.441-9.419,0
				c-1.323-3.67-0.659-10.143,1.103-12.016C730.892,452.98,736.402,455.336,736.402,455.336z"/>
			<g>
				<path fill="#534699" d="M814.381,451.418c-0.573-1.888-14.596-46.207-57.046-39.019c-22.137,3.749-23.021,35.852-23.028,36.176
					l-2.646-0.052c0.008-0.346,0.959-34.622,25.232-38.733c44.741-7.568,59.869,40.373,60.019,40.858L814.381,451.418z"/>
			</g>
			<path fill="#534699" d="M733.059,446.729c0,0,5.756,8.347,4.385,9.889c-1.372,1.542-4.459-0.306-8.646,0.729
				S731.372,446.429,733.059,446.729z"/>
			<path fill="#534699" d="M756.699,503.405c0,0,2.209-55.57,74.339-58.644c0,0,55.819,48.52,14.815,101.421
				c0,0-64.287,3.044-106.215-43.229L756.699,503.405z"/>
			<path fill="#92C6E1" d="M810.886,488.085c0,0-2.067,10.822,1.487,17.539h-7.191C805.182,505.624,805.264,493.594,810.886,488.085
				z"/>
			<path fill="#92C6E1" d="M794.259,488.085c0,0-2.066,10.822,1.488,17.539h-7.192C788.555,505.624,788.638,493.594,794.259,488.085
				z"/>
			<path fill="#92C6E1" d="M780.205,488.085c0,0-2.066,10.822,1.488,17.539h-7.192C774.501,505.624,774.584,493.594,780.205,488.085
				z"/>
			<path fill="#92C6E1" d="M764.912,488.085c0,0-2.066,10.822,1.488,17.539h-7.192C759.208,505.624,759.291,493.594,764.912,488.085
				z"/>
			<path fill="#92C6E1" d="M746.478,482.41c0,0-2.067,14.322,1.487,23.214h-7.191C740.773,505.624,740.855,489.699,746.478,482.41z"
				/>
			<path fill="#92C6E1" d="M825.518,493.188c0,0-0.33,8.698,3.473,13.429h-6.944C822.046,506.616,822.872,497.843,825.518,493.188z"
				/>
			<polygon fill="#498EB5" points="833.784,504.015 737.836,501.441 737.836,505.979 833.068,508.601 			"/>
			<circle fill="#FFFFFF" cx="800.809" cy="470.715" r="13.531"/>
			<circle fill="#0E0F1D" cx="800.809" cy="470.715" r="8.201"/>
			<circle fill="#FFFFFF" cx="798.44" cy="467.849" r="4.649"/>
			<polygon fill="#3C2870" points="887.188,487.208 860.758,492.831 861.809,494.599 			"/>
			<polygon fill="#3C2870" points="887.188,493.906 861.406,495.743 862.801,498.453 			"/>
			<polygon fill="#3C2870" points="887.767,501.098 862.222,499.902 861.809,502.493 			"/>
			<path fill="#3C2870" d="M740.838,504.211c31.493,33.736,74.887,40.484,94.562,41.739c14.72-8.719,20.595-24.516,20.595-24.516
				s-9.921,17.029-31.522,16.81c-21.604-0.22-61.668-24.105-61.668-24.105l54.915-5.962L740.838,504.211z"/>
		</g>
		<circle fill="#6BA6CE" cx="850.483" cy="513.217" r="2.7"/>
		<circle fill="#6BA6CE" cx="817.085" cy="525.459" r="2.7"/>
		<circle fill="#6BA6CE" cx="833.488" cy="516.523" r="2.7"/>
		<path fill="#6BA6CE" d="M847.783,520.992c0,2.468-1.999,4.467-4.469,4.467c-2.467,0-4.467-1.999-4.467-4.467
			c0-2.47,2-4.469,4.467-4.469C845.784,516.523,847.783,518.522,847.783,520.992z"/>
		<circle fill="#6BA6CE" cx="834.534" cy="523.072" r="1.046"/>
		<circle fill="#6BA6CE" cx="830.18" cy="528.64" r="3.711"/>
	</g>
	<g>
		<polygon fill="#56A3D7" points="321.532,524.152 335.954,532.003 348.847,520.936 326.568,517.539 		"/>
		<path fill="#D9D843" d="M163.989,466.539c0,0,2.631,6.132,1.04,11.532c-1.592,5.4-8.538,2.441-9.418,0
			c-1.323-3.67-0.66-10.143,1.103-12.015C158.478,464.183,163.989,466.539,163.989,466.539z"/>
		<path fill="#91C1DD" d="M288.541,453.332l7.605-19.539c0,0,46.395,26.517,46.344,50.664L288.541,453.332z"/>
		<polygon fill="#085587" points="302.76,439.989 290.36,463.302 294.824,460.847 		"/>
		<polygon fill="#085587" points="307.497,444.725 295.096,468.039 299.561,465.583 		"/>
		<polygon fill="#085587" points="313.35,450.579 300.95,473.893 305.414,471.437 		"/>
		<polygon fill="#085587" points="320.568,454.883 308.168,478.196 312.632,475.741 		"/>
		<polygon fill="#085587" points="325.438,459.752 313.038,483.066 317.502,480.611 		"/>
		<polygon fill="#085587" points="331.44,465.755 319.04,489.068 323.504,486.613 		"/>
		<polygon fill="#085587" points="336.456,470.77 324.056,494.084 328.52,491.627 		"/>
		<polygon fill="#91C1DD" points="203.848,489.867 201.079,503.728 209.065,492.919 		"/>
		<polygon fill="#91C1DD" points="210.209,494.324 204.69,505.206 214.821,497.259 		"/>
		<polygon fill="#91C1DD" points="242.037,528.632 236.517,539.513 246.648,531.566 		"/>
		<polygon fill="#91C1DD" points="248.752,534.072 243.232,544.953 253.363,537.007 		"/>
		<polygon fill="#91C1DD" points="217.052,499.196 211.604,510.016 221.527,503.501 		"/>
		<polygon fill="#91C1DD" points="235.914,519.946 230.467,530.766 240.39,524.25 		"/>
		<polygon fill="#91C1DD" points="222.912,505.206 217.624,514.823 227.286,509.023 		"/>
		<polygon fill="#91C1DD" points="229.195,512.729 223.907,522.346 233.568,516.547 		"/>
		<polygon fill="#91C1DD" points="177.763,547.239 187.092,536.624 183.354,549.533 		"/>
		<polygon fill="#91C1DD" points="185.167,549.588 190.461,538.596 190.299,551.469 		"/>
		<polygon fill="#91C1DD" points="231.751,554.041 237.045,543.049 236.883,555.925 		"/>
		<polygon fill="#91C1DD" points="240.152,556.074 245.445,545.082 245.284,557.955 		"/>
		<polygon fill="#91C1DD" points="193.191,552.065 198.481,541.169 199.33,553.008 		"/>
		<polygon fill="#91C1DD" points="221.132,554.452 226.42,543.556 227.27,555.396 		"/>
		<polygon fill="#91C1DD" points="201.525,553.072 205.956,543.031 207.214,554.23 		"/>
		<polygon fill="#91C1DD" points="211.318,553.496 215.748,543.455 217.006,554.653 		"/>
		<path fill="#56A3D7" d="M360.742,490.487l54.115-32.703c0,0-8.899,47.868-10.402,48.848c-1.502,0.979,10.402,38.566,10.402,38.566
			l-54.115-39.562V490.487z"/>
		<path fill="#085587" d="M361.72,491.992c0.501-0.018,45.292-21.798,44.761-21.526c-0.531,0.271-42.618,24.068-42.618,24.068
			L361.72,491.992z"/>
		<path fill="#085587" d="M360.722,495.357c0.5,0.044,47.593-13.97,47.033-13.765c-0.56,0.206-45.211,16.547-45.211,16.547
			L360.722,495.357z"/>
		<path fill="#085587" d="M355.357,497.681c0.483,0.137,49.832-6.592,49.242-6.5c-0.588,0.093-47.998,9.581-47.998,9.581
			L355.357,497.681z"/>
		<path fill="#085587" d="M351.894,498.228c0.448,0.23,50.178,2.953,49.583,2.933c-0.595-0.021-48.944,0.33-48.944,0.33
			L351.894,498.228z"/>
		<path fill="#085587" d="M351.241,499.235c0.401,0.303,48.912,11.579,48.33,11.455c-0.583-0.122-48.265-8.13-48.265-8.13
			L351.241,499.235z"/>
		<path fill="#085587" d="M354.479,498.592c0.327,0.383,49.236,28.445,48.695,28.198c-0.542-0.246-49.35-24.938-49.35-24.938
			L354.479,498.592z"/>
		<path fill="#1C75BC" d="M240.153,460.531c0,0,24.369-17.075,46.901-9.695s54.402,38.96,77.883,38.032c0,0,8.609,9.753,0,17.941
			c0,0-33.456,8.153-41.791,20.895c-8.335,12.741-32.009,41.522-48.022,41.303L240.153,460.531z"/>
		<path fill="#085587" d="M368.159,502.025c-6.115,0.581-14.116,1.801-21.42,4.355c-14.384,5.032-38.193,19.251-45.963,27.684
			c-7.771,8.432-23.431,2.149-23.431,2.149s-4.167,8.755-7.582,16.161l5.362,16.632c16.013,0.22,39.687-28.562,48.022-41.303
			c8.335-12.741,41.791-20.895,41.791-20.895C366.582,505.244,367.591,503.625,368.159,502.025z"/>
		<path fill="#085587" d="M287.328,500.256l35.493-14.582c0,0-4.132,28.543-12.344,37.326c-8.213,8.786-22.266,5.544-22.266,5.544
			L287.328,500.256z"/>
		<path fill="#56A3D7" d="M287.328,490.487l35.493-14.581c0,0-4.132,28.542-12.344,37.326c-8.213,8.786-22.266,5.544-22.266,5.544
			L287.328,490.487z"/>
		<path fill="#085587" d="M288.541,494.293c0.496-0.074,30.422-10.16,29.926-9.829s-27.504,12.108-27.504,12.108L288.541,494.293z"
			/>
		<path fill="#085587" d="M288.205,500c0.501-0.016,31.391-6.58,30.86-6.309c-0.531,0.271-28.717,8.851-28.717,8.851L288.205,500z"
			/>
		<path fill="#085587" d="M282.863,504.487c0.495,0.083,32.071-0.302,31.498-0.142c-0.573,0.162-29.895,3.056-29.895,3.056
			L282.863,504.487z"/>
		<path fill="#085587" d="M277.345,508.817c0.472,0.168,31.62,5.365,31.027,5.425c-0.593,0.057-29.964-2.273-29.964-2.273
			L277.345,508.817z"/>
		<path fill="#085587" d="M213.051,481.74c0,0,1.897-8.025,10.09-10.421c0,0,9.175-20.858,29.135-10.787
			c19.96,10.071,48.817,17.539,45.021,47.355c-3.796,29.815-13.938,70.079-29.81,71.663c-15.872,1.581-69.557-23.493-68.515-24.517
			h62.122L213.051,481.74z"/>
		<path fill="#1C75BC" d="M290.194,493.126c-3.312-11.309-17.491-21.654-29.996-28.846c-2.727-1.241-5.396-2.474-7.922-3.749
			c-19.96-10.071-29.135,10.787-29.135,10.787c-8.193,2.396-10.997,13.366-10.997,13.366l48.951,70.349h-9.926
			c7.006,5.382,12.481,8.944,15.217,9.417C280.387,566.873,296.399,514.312,290.194,493.126z"/>
		<path fill="#56A3D7" d="M202.139,489.014c0,0,20.351,13.583,35.402,36.344s16.017,26.198,16.017,26.198s-63.088,0.03-78.258-5.479
			l3.444,8.956l82.132,7.8l3.307,2.878l4.717-1.261c0,0-38.984-73.121-57.039-82.663L202.139,489.014z"/>
		<circle fill="#FFFFFF" cx="249.017" cy="484.456" r="13.531"/>
		<circle fill="#0E0F1D" cx="249.018" cy="484.456" r="8.2"/>
		<circle fill="#FFFFFF" cx="246.649" cy="481.59" r="4.648"/>
		<g>
			<path fill="#1C75BC" d="M241.967,462.622c-0.573-1.889-14.596-46.208-57.044-39.019c-22.138,3.748-23.022,35.852-23.028,36.176
				l-2.645-0.052c0.006-0.346,0.958-34.622,25.231-38.733c44.74-7.568,59.87,40.373,60.018,40.858L241.967,462.622z"/>
		</g>
		<path fill="#1C75BC" d="M160.646,457.931c0,0,5.754,8.347,4.383,9.889c-1.372,1.542-4.459-0.306-8.647,0.729
			C152.195,469.583,158.958,457.632,160.646,457.931z"/>
		<polygon fill="#085587" points="344.838,523.069 327.229,518.357 326.981,520.507 		"/>
		<polygon fill="#085587" points="323.647,523.482 323.896,521.334 341.504,526.046 		"/>
		<circle fill="#6BA6CE" cx="283.141" cy="510.906" r="2.7"/>
		<circle fill="#6BA6CE" cx="341.503" cy="502.027" r="2.7"/>
		<circle fill="#6BA6CE" cx="264.475" cy="541.186" r="2.7"/>
		<circle fill="#6BA6CE" cx="271.833" cy="524.019" r="2.7"/>
		<path fill="#6BA6CE" d="M336.846,492.865c0.922,1.17,0.719,2.867-0.452,3.789c-1.172,0.923-2.869,0.721-3.791-0.449
			c-0.924-1.173-0.721-2.87,0.449-3.794C334.225,491.489,335.922,491.69,336.846,492.865z"/>
		<circle fill="#6BA6CE" cx="282.319" cy="521.45" r="4.468"/>
		<circle fill="#6BA6CE" cx="330.256" cy="505.854" r="4.468"/>
		<circle fill="#6BA6CE" cx="276.706" cy="528.516" r="1.047"/>
		<circle fill="#6BA6CE" cx="321.531" cy="510.906" r="1.046"/>
		<path fill="#6BA6CE" d="M352.062,498.587c0.359,0.455,0.28,1.113-0.173,1.47c-0.455,0.359-1.114,0.279-1.471-0.176
			c-0.358-0.451-0.279-1.11,0.175-1.47C351.047,498.055,351.706,498.133,352.062,498.587z"/>
		<circle fill="#6BA6CE" cx="276.73" cy="535.583" r="3.712"/>
	</g>
	<g>
		<polygon fill="#56A3D7" points="744.974,289.297 759.394,297.148 772.287,286.081 750.009,282.684 		"/>
		<path fill="#91C1DD" d="M711.981,218.478l7.605-19.539c0,0,46.395,26.517,46.346,50.664L711.981,218.478z"/>
		<polygon fill="#215370" points="726.2,205.135 713.8,228.449 718.264,225.993 		"/>
		<polygon fill="#215370" points="730.938,209.872 718.538,233.185 723.002,230.729 		"/>
		<polygon fill="#215370" points="736.792,215.726 724.392,239.039 728.855,236.583 		"/>
		<polygon fill="#215370" points="744.01,220.029 731.609,243.343 736.074,240.887 		"/>
		<polygon fill="#215370" points="748.88,224.899 736.479,248.212 740.943,245.757 		"/>
		<polygon fill="#215370" points="754.881,230.901 742.48,254.215 746.944,251.76 		"/>
		<polygon fill="#215370" points="759.897,235.916 747.497,259.229 751.962,256.774 		"/>
		<path fill="#56A3D7" d="M784.184,255.633l54.114-32.703c0,0-8.9,47.868-10.401,48.847c-1.503,0.979,10.401,38.566,10.401,38.566
			l-54.114-39.561V255.633z"/>
		<path fill="#215370" d="M785.16,257.138c0.501-0.017,45.292-21.797,44.762-21.526c-0.531,0.271-42.617,24.068-42.617,24.068
			L785.16,257.138z"/>
		<path fill="#215370" d="M784.163,260.504c0.499,0.042,47.594-13.971,47.033-13.766s-45.212,16.546-45.212,16.546L784.163,260.504z
			"/>
		<path fill="#215370" d="M778.798,262.825c0.482,0.138,49.833-6.59,49.241-6.498c-0.586,0.093-47.996,9.582-47.996,9.582
			L778.798,262.825z"/>
		<path fill="#215370" d="M775.336,263.375c0.447,0.229,50.177,2.951,49.582,2.931c-0.597-0.021-48.944,0.332-48.944,0.332
			L775.336,263.375z"/>
		<path fill="#215370" d="M774.683,264.38c0.4,0.304,48.91,11.58,48.329,11.456c-0.584-0.123-48.265-8.131-48.265-8.131
			L774.683,264.38z"/>
		<path fill="#215370" d="M777.919,263.737c0.328,0.384,49.236,28.447,48.696,28.199c-0.542-0.246-49.35-24.938-49.35-24.938
			L777.919,263.737z"/>
		<path fill="#38739B" d="M656.945,223.429c0,0,31.017-14.826,53.551-7.447c22.532,7.379,54.4,38.96,77.883,38.032
			c0,0,8.608,9.752,0,17.94c0,0-33.457,8.153-41.791,20.894c-8.336,12.741-32.625,37.221-48.639,37L656.945,223.429z"/>
		<path fill="#215370" d="M791.601,267.17c-6.114,0.583-14.115,1.802-21.421,4.357c-14.385,5.032-38.192,19.251-45.964,27.684
			c-7.771,8.432-23.431,2.149-23.431,2.149s-4.167,8.753-7.582,16.16l4.746,12.329c16.014,0.221,40.303-24.259,48.639-37
			c8.334-12.741,41.791-20.894,41.791-20.894C790.022,270.391,791.032,268.77,791.601,267.17z"/>
		<path fill="#215370" d="M703.549,267.19l35.493-14.581c0,0-4.133,28.541-12.346,37.326s-22.266,5.542-22.266,5.542L703.549,267.19
			z"/>
		<path fill="#56A3D7" d="M703.549,257.422l35.493-14.581c0,0-4.133,28.541-12.346,37.326s-22.266,5.542-22.266,5.542
			L703.549,257.422z"/>
		<path fill="#215370" d="M703.107,261.229c0.496-0.075,30.422-10.161,29.926-9.83c-0.496,0.331-27.502,12.107-27.502,12.107
			L703.107,261.229z"/>
		<path fill="#215370" d="M704.425,266.936c0.501-0.017,31.391-6.581,30.861-6.31c-0.532,0.271-28.717,8.852-28.717,8.852
			L704.425,266.936z"/>
		<path fill="#215370" d="M699.083,271.423c0.495,0.082,32.073-0.304,31.5-0.142c-0.574,0.162-29.896,3.055-29.896,3.055
			L699.083,271.423z"/>
		<path fill="#215370" d="M693.564,275.752c0.472,0.168,31.62,5.366,31.029,5.424c-0.595,0.057-29.966-2.273-29.966-2.273
			L693.564,275.752z"/>
		<polygon fill="#215370" points="768.278,288.216 750.67,283.504 750.422,285.653 		"/>
		<polygon fill="#215370" points="747.09,288.629 747.337,286.48 764.945,291.192 		"/>
		<path fill="#215370" d="M679.767,220.205c-0.852,0.04-1.645,0.128-2.477,0.182l4.681,92.882c0,0,1.099,17.555,10.063,17.718
			c2.286,0.042,5.727-0.507,9.703-1.527C732.948,271.271,679.767,220.205,679.767,220.205z"/>
		<path fill="#D9D843" d="M571.814,236.563c0,0,2.631,6.131,1.04,11.532c-1.591,5.4-8.538,2.441-9.418,0
			c-1.322-3.67-0.66-10.143,1.104-12.016C566.303,234.207,571.814,236.563,571.814,236.563z"/>
		<g>
			<path fill="#1C75BC" d="M649.792,232.645c-0.573-1.888-14.596-46.207-57.044-39.019c-22.138,3.749-23.021,35.852-23.028,36.176
				l-2.646-0.052c0.006-0.346,0.958-34.622,25.231-38.733c44.74-7.568,59.87,40.373,60.018,40.858L649.792,232.645z"/>
		</g>
		<path fill="#1C75BC" d="M568.472,227.955c0,0,5.754,8.347,4.383,9.889c-1.372,1.542-4.459-0.306-8.646,0.729
			C560.02,239.607,566.783,227.655,568.472,227.955z"/>
		<path fill="#38739B" d="M602.881,283.747c0,0,2.28-64.088,74.41-67.482c0,0,55.748,56.303,14.744,114.723
			c0,0-64.287,3.36-106.214-47.74L602.881,283.747z"/>
		<path fill="#6BA6CE" d="M657.065,266.831c0,0-2.066,11.949,1.488,19.366h-7.192C651.361,286.197,651.444,272.912,657.065,266.831z
			"/>
		<path fill="#6BA6CE" d="M640.44,266.831c0,0-2.067,11.949,1.488,19.366h-7.192C634.736,286.197,634.819,272.912,640.44,266.831z"
			/>
		<path fill="#6BA6CE" d="M626.387,266.831c0,0-2.066,11.949,1.488,19.366h-7.192C620.683,286.197,620.766,272.912,626.387,266.831z
			"/>
		<path fill="#6BA6CE" d="M611.093,266.831c0,0-2.067,11.949,1.488,19.366h-7.192C605.389,286.197,605.472,272.912,611.093,266.831z
			"/>
		<path fill="#6BA6CE" d="M592.658,260.563c0,0-2.066,15.815,1.488,25.634h-7.192C586.955,286.197,587.037,268.612,592.658,260.563z
			"/>
		<path fill="#6BA6CE" d="M671.698,272.464c0,0-0.331,9.605,3.472,14.83h-6.944C668.226,287.294,669.052,277.605,671.698,272.464z"
			/>
		<polygon fill="#498EB5" points="679.964,284.42 584.016,281.578 584.016,286.59 679.249,289.483 		"/>
		<circle fill="#FFFFFF" cx="636.221" cy="251.941" r="13.531"/>
		<circle fill="#0E0F1D" cx="636.221" cy="251.941" r="8.2"/>
		<circle fill="#FFFFFF" cx="633.852" cy="249.075" r="4.648"/>
		<path fill="#215370" d="M587.019,284.638c31.494,37.254,74.885,44.706,94.562,46.091c14.72-9.627,20.594-27.074,20.594-27.074
			s-9.92,18.806-31.523,18.564c-21.604-0.243-61.666-26.619-61.666-26.619l54.915-6.584L587.019,284.638z"/>
		<circle fill="#6BA6CE" cx="694.262" cy="292.997" r="1.047"/>
		<circle fill="#6BA6CE" cx="698.357" cy="288.634" r="2.154"/>
		<circle fill="#6BA6CE" cx="694.235" cy="304.02" r="2.7"/>
		<circle fill="#6BA6CE" cx="658.82" cy="307.333" r="2.701"/>
		<circle fill="#6BA6CE" cx="676.959" cy="302.88" r="2.7"/>
		<circle fill="#6BA6CE" cx="685.321" cy="309.708" r="4.468"/>
		<circle fill="#6BA6CE" cx="676.299" cy="309.478" r="1.047"/>
		<circle fill="#6BA6CE" cx="670.669" cy="313.751" r="3.711"/>
		<circle fill="#6BA6CE" cx="765.505" cy="268.327" r="2.701"/>
		<circle fill="#6BA6CE" cx="750.503" cy="259.682" r="2.701"/>
		<circle fill="#6BA6CE" cx="754.994" cy="269.498" r="4.468"/>
		<circle fill="#6BA6CE" cx="747.001" cy="265.311" r="1.047"/>
		<circle fill="#6BA6CE" cx="773.526" cy="261.217" r="2.153"/>
		<circle fill="#6BA6CE" cx="740.063" cy="266.662" r="3.711"/>
	</g>
	<g>
		<path fill="#56A3D7" d="M442.786,332.232c0,0,11.267,12.528,16.024,11.957c4.756-0.572,13.718-3.357,11.811-5.969
			c-1.908-2.61-14.511-10.17-14.511-10.17L442.786,332.232z"/>
		<path fill="#56A3D7" d="M432.221,225.981l11.923-28.98c0,0,59.746,43.21,35.439,90.092L432.221,225.981z"/>
		<polygon fill="#26424C" points="445.646,205.582 434.016,231.043 447.555,207.87 		"/>
		<polygon fill="#26424C" points="457.89,214.331 442.651,237.812 459.443,216.873 		"/>
		<polygon fill="#26424C" points="468.927,225.652 449.437,245.748 469.96,228.449 		"/>
		<polygon fill="#26424C" points="476.359,238.473 453.047,253.97 476.775,241.425 		"/>
		<polygon fill="#26424C" points="483.683,253.592 457.515,263.533 483.434,256.56 		"/>
		<path fill="#56A3D7" d="M497.027,305.797c0,0,20.876-19.889,53.479-23.875l-13.728,31.574l4.862,26.213
			c0,0-36.319-2.199-48.045-18.116L497.027,305.797z"/>
		<polygon fill="#26424C" points="536.729,288.242 495.839,309.271 535.629,292.308 		"/>
		<polygon fill="#26424C" points="539.338,300.668 494.755,311.908 537.349,304.381 		"/>
		<polygon fill="#26424C" points="537.518,325.667 492.761,315.137 534.043,328.05 		"/>
		<polygon fill="#26424C" points="534.935,335.292 492.162,318.424 531.155,337.147 		"/>
		<polygon fill="#26424C" points="536.535,312.708 490.562,313.259 533.738,315.858 		"/>
		<path fill="#416777" d="M386.235,227.398c0,0,38.772-17.345,68.442,8.827c29.671,26.172,28.91,65.717,40.729,67.87
			c11.82,2.152,7.247,15.499,0,18.93c-7.245,3.434-61.302,19.004-93.755,9.207c0,0,19.394-23.58,9.673-45.754
			C401.603,264.304,386.235,227.398,386.235,227.398z"/>
		<path fill="#26424C" d="M495.406,323.025c3.957-1.873,7.091-6.695,7.223-11.041c-1.227,0.345-2.599,0.831-4.173,1.511
			c-22.019,9.534-80.662-5.731-80.662-5.731c-1.837,0.818-3.528,1.641-5.142,2.463c-3.241,12.558-11.001,22.005-11.001,22.005
			C434.104,342.03,488.161,326.459,495.406,323.025z"/>
		<path fill="#D9D843" d="M314.745,234.433c0,0,2.276,5.302,0.899,9.974c-1.377,4.671-7.385,2.111-8.144,0
			c-1.145-3.174-0.572-8.773,0.953-10.392C309.978,232.395,314.745,234.433,314.745,234.433z"/>
		<polygon fill="#91C1DD" points="349.216,254.608 346.822,266.595 353.729,257.248 		"/>
		<polygon fill="#91C1DD" points="354.719,258.462 349.946,267.873 358.708,261.001 		"/>
		<polygon fill="#91C1DD" points="382.246,288.135 377.472,297.546 386.235,290.673 		"/>
		<polygon fill="#91C1DD" points="388.053,292.839 383.279,302.25 392.042,295.378 		"/>
		<polygon fill="#91C1DD" points="360.636,262.677 355.925,272.032 364.507,266.399 		"/>
		<polygon fill="#91C1DD" points="376.949,280.622 372.239,289.978 380.82,284.345 		"/>
		<polygon fill="#91C1DD" points="365.706,267.873 361.132,276.192 369.487,271.176 		"/>
		<polygon fill="#91C1DD" points="371.139,274.379 366.565,282.699 374.921,277.681 		"/>
		<polygon fill="#91C1DD" points="326.657,304.227 334.727,295.045 331.493,306.21 		"/>
		<polygon fill="#91C1DD" points="333.062,306.257 337.639,296.751 337.5,307.884 		"/>
		<polygon fill="#91C1DD" points="373.35,310.111 377.928,300.603 377.789,311.739 		"/>
		<polygon fill="#91C1DD" points="380.615,311.869 385.194,302.36 385.053,313.496 		"/>
		<polygon fill="#91C1DD" points="340.001,308.402 344.575,298.976 345.311,309.215 		"/>
		<polygon fill="#91C1DD" points="364.165,310.465 368.739,301.04 369.474,311.28 		"/>
		<polygon fill="#91C1DD" points="347.209,309.271 351.042,300.586 352.129,310.272 		"/>
		<polygon fill="#91C1DD" points="355.677,309.637 359.51,300.953 360.598,310.638 		"/>
		<path fill="#26424C" d="M421.417,263.591l30.697-12.609c0,0-3.574,24.684-10.677,32.282c-7.102,7.596-19.256,4.793-19.256,4.793
			L421.417,263.591z"/>
		<path fill="#56A3D7" d="M421.417,255.145l30.697-12.612c0,0-3.574,24.685-10.677,32.283c-7.102,7.598-19.256,4.792-19.256,4.792
			L421.417,255.145z"/>
		<path fill="#26424C" d="M422.466,258.438c0.428-0.067,26.311-8.789,25.881-8.503c-0.43,0.287-23.788,10.472-23.788,10.472
			L422.466,258.438z"/>
		<path fill="#26424C" d="M422.174,263.372c0.434-0.014,27.149-5.691,26.69-5.457c-0.46,0.234-24.835,7.656-24.835,7.656
			L422.174,263.372z"/>
		<path fill="#26424C" d="M417.554,267.253c0.429,0.07,27.738-0.262,27.242-0.124c-0.496,0.139-25.854,2.643-25.854,2.643
			L417.554,267.253z"/>
		<path fill="#26424C" d="M412.783,270.998c0.407,0.146,27.348,4.64,26.834,4.69c-0.513,0.049-25.915-1.967-25.915-1.967
			L412.783,270.998z"/>
		<path fill="#26424C" d="M357.176,247.578c0,0,1.642-6.94,8.729-9.013c0,0,7.934-18.038,25.197-9.329
			c17.264,8.711,42.222,15.168,38.937,40.956c-3.283,25.787-12.054,60.611-25.78,61.979c-13.728,1.368-60.158-20.318-59.256-21.203
			h53.728L357.176,247.578z"/>
		<path fill="#416777" d="M423.895,257.426c-2.865-9.779-15.127-18.727-25.942-24.949c-2.357-1.072-4.667-2.138-6.852-3.241
			c-17.263-8.709-25.197,9.329-25.197,9.329c-7.087,2.073-9.513,11.562-9.513,11.562l42.337,60.841h-8.585
			c6.059,4.655,10.794,7.734,13.161,8.145C415.413,321.208,429.262,275.75,423.895,257.426z"/>
		<path fill="#56A3D7" d="M347.74,253.87c0,0,17.599,11.745,30.618,31.432c13.017,19.687,13.852,22.659,13.852,22.659
			s-54.562,0.026-67.683-4.738l2.979,7.745l71.032,6.746l2.86,2.488l4.08-1.089c0,0-33.715-63.241-49.331-71.493L347.74,253.87z"/>
		<circle fill="#FFFFFF" cx="388.283" cy="249.928" r="11.703"/>
		<path fill="#0E0F1D" d="M395.375,249.928c0,3.917-3.175,7.094-7.091,7.094c-3.917,0-7.092-3.178-7.092-7.094
			c0-3.915,3.175-7.092,7.092-7.092C392.2,242.835,395.375,246.013,395.375,249.928z"/>
		<circle fill="#FFFFFF" cx="386.234" cy="247.451" r="4.02"/>
		<g>
			<path fill="#416777" d="M382.186,231.043c-0.496-1.633-12.624-39.962-49.336-33.745c-19.146,3.242-19.91,31.007-19.918,31.286
				l-2.288-0.044c0.008-0.298,0.831-29.943,21.825-33.498c38.692-6.546,51.777,34.918,51.906,35.336L382.186,231.043z"/>
		</g>
		<path fill="#416777" d="M311.854,226.988c0,0,4.977,7.219,3.791,8.553c-1.186,1.334-3.856-0.265-7.478,0.629
			C304.545,237.065,310.394,226.728,311.854,226.988z"/>
		<circle fill="#6BA6CE" cx="417.796" cy="272.803" r="2.334"/>
		<path fill="#6BA6CE" d="M458.79,294.443c1.165,1.478,0.911,3.622-0.568,4.786c-1.479,1.166-3.625,0.912-4.789-0.568
			c-1.164-1.482-0.909-3.624,0.571-4.789C455.482,292.708,457.625,292.963,458.79,294.443z"/>
		<circle fill="#6BA6CE" cx="401.652" cy="298.99" r="2.336"/>
		<circle fill="#6BA6CE" cx="408.016" cy="284.143" r="2.336"/>
		<path fill="#6BA6CE" d="M450.232,284.987c1.165,1.476,0.908,3.622-0.57,4.786c-1.48,1.163-3.622,0.908-4.786-0.57
			c-1.166-1.479-0.912-3.623,0.566-4.788C446.923,283.251,449.067,283.505,450.232,284.987z"/>
		<circle fill="#6BA6CE" cx="417.084" cy="281.922" r="3.864"/>
		<circle fill="#6BA6CE" cx="441.913" cy="301.384" r="5.641"/>
		<circle fill="#6BA6CE" cx="412.229" cy="288.033" r="0.905"/>
		<path fill="#6BA6CE" d="M431.936,306.944c0.454,0.575,0.355,1.407-0.218,1.856c-0.573,0.453-1.405,0.354-1.857-0.22
			c-0.451-0.572-0.353-1.405,0.224-1.857C430.654,306.273,431.486,306.372,431.936,306.944z"/>
		<circle fill="#6BA6CE" cx="468.405" cy="293.028" r="1.322"/>
		<circle fill="#6BA6CE" cx="412.251" cy="294.146" r="3.21"/>
		<polygon fill="#26424C" points="461.66,341.234 446.027,330.653 457.656,342.569 		"/>
		<polygon fill="#26424C" points="468.409,337.746 451.295,329.776 464.667,339.697 		"/>
	</g>
	<g>
		<g>
			<polygon fill="#938BC3" points="341.82,768.703 321.671,770.747 342.061,785.146 358.564,777.903 			"/>
			<polygon fill="#362F72" points="326.555,772.638 343.386,771.168 344.889,773.446 			"/>
			<polygon fill="#362F72" points="346.834,775.275 335.179,778.601 350.243,777.903 			"/>
			<path fill="#938BC3" d="M378.647,694.396l-10.516-43.473l-2.737,11.248c0,0-43.938,19.124-59.504,35.325l15.482,18.083
				C321.373,715.579,358.856,691.409,378.647,694.396z"/>
			<polygon fill="#362F72" points="364.79,666.42 364.333,691.938 358.597,691.864 			"/>
			<polygon fill="#362F72" points="349.343,671.703 356.11,696.313 350.585,697.86 			"/>
			<polygon fill="#362F72" points="336.206,678.66 346.539,701.996 341.305,704.344 			"/>
			<polygon fill="#362F72" points="322.374,687.48 337.292,708.188 332.653,711.563 			"/>
			<polygon fill="#362F72" points="314.567,692.481 329.485,713.189 324.846,716.566 			"/>
			<path fill="#938BC3" d="M292.604,723.525c0,0-19.304-21.604-57.183-27.306l55.195,31.287L292.604,723.525z"/>
			<path fill="#938BC3" d="M243.978,759.727l47.402-28.722l1.224,5.148C292.604,736.153,272.017,752.276,243.978,759.727z"/>
			<path fill="#938BC3" d="M243.978,699.519l5.133,19.479c0,0,4.124,0.38,5.949,7.595c1.825,7.216-1.751,7.525-1.751,7.525
				l3.044,21.279l39.674-23.152L279.794,716.3L243.978,699.519z"/>
			<polygon fill="#362F72" points="256.354,751.146 288.805,733.304 290.458,735.182 			"/>
			<polygon fill="#362F72" points="255.42,740.933 283.897,734.844 255.42,744.856 			"/>
			<polygon fill="#362F72" points="256.84,733.304 285.317,733.017 255.758,734.844 			"/>
			<polygon fill="#362F72" points="255.061,721.519 287.144,728.689 256.354,723.817 			"/>
			<polygon fill="#362F72" points="248.926,709.953 288.393,726.248 250.006,713.538 			"/>
			<path fill="#D9D843" d="M489.192,697.278c0,0-2.631,6.131-1.04,11.532c1.591,5.399,8.538,2.441,9.417,0
				c1.323-3.671,0.66-10.142-1.103-12.015S489.192,697.278,489.192,697.278z"/>
			<path fill="#584DA0" d="M405.239,694.008c0,0-23.021-11.509-45.554-4.128c-22.532,7.378-47.96,30.654-71.441,29.727
				c0,0-8.609,9.753,0,17.941c0,0,33.456,8.153,41.791,20.895c8.335,12.741,34.114,35.467,50.127,35.245L405.239,694.008z"/>
			<path fill="#362F72" d="M285.022,732.764c6.115,0.581,14.115,1.801,21.42,4.355c14.384,5.032,38.192,19.251,45.963,27.684
				c7.771,8.432,23.431,2.149,23.431,2.149s4.167,8.755,7.582,16.161l-3.256,10.574c-16.013,0.222-41.792-22.504-50.127-35.245
				c-8.335-12.741-41.791-20.895-41.791-20.895C286.6,735.982,285.591,734.363,285.022,732.764z"/>
			<g>
				<path fill="#584DA0" d="M411.215,693.359c0.573-1.888,14.596-46.206,57.044-39.019c22.138,3.748,23.021,35.852,23.028,36.177
					l2.646-0.051c-0.006-0.347-0.958-34.623-25.232-38.735c-44.74-7.566-59.869,40.373-60.018,40.858L411.215,693.359z"/>
			</g>
			<path fill="#584DA0" d="M492.535,688.671c0,0-5.754,8.347-4.383,9.89c1.372,1.542,4.459-0.308,8.646,0.729
				C500.986,700.322,494.223,688.371,492.535,688.671z"/>
			<circle fill="#6BA6CE" cx="370.041" cy="741.644" r="2.7"/>
			<circle fill="#6BA6CE" cx="311.678" cy="732.765" r="2.7"/>
			<circle fill="#6BA6CE" cx="381.348" cy="754.757" r="2.7"/>
			<circle fill="#6BA6CE" cx="318.457" cy="725.273" r="2.7"/>
			<circle fill="#6BA6CE" cx="370.862" cy="752.188" r="4.468"/>
			<circle fill="#6BA6CE" cx="322.926" cy="736.592" r="4.469"/>
			<circle fill="#6BA6CE" cx="376.476" cy="759.254" r="1.047"/>
			<circle fill="#6BA6CE" cx="331.65" cy="741.644" r="1.046"/>
			<path fill="#6BA6CE" d="M301.119,729.325c-0.359,0.455-0.28,1.113,0.173,1.47c0.455,0.359,1.113,0.279,1.471-0.176
				c0.358-0.451,0.279-1.11-0.176-1.47C302.135,728.793,301.476,728.871,301.119,729.325z"/>
			<circle fill="#6BA6CE" cx="376.451" cy="766.322" r="3.711"/>
			<polygon fill="#B5B0D7" points="429.333,700.505 449.283,720.971 426.814,711.25 			"/>
			<polygon fill="#B5B0D7" points="425.686,717.94 442.793,733.621 423.587,727.948 			"/>
			<polygon fill="#B5B0D7" points="419.964,732.652 433.837,745.368 417.865,742.663 			"/>
			<polygon fill="#B5B0D7" points="474.99,766.063 462.351,739.703 464.702,765.643 			"/>
			<polygon fill="#B5B0D7" points="458.419,764.927 449.246,742.85 448.903,764.281 			"/>
			<polygon fill="#B5B0D7" points="443.69,766.701 436.252,748.796 434.176,766.053 			"/>
			<path fill="#938BC3" d="M381.892,726.308l-25.187-14.503c0,0-15.568,18.404-5.718,39.737l27.84-3.935L381.892,726.308z"/>
			<path fill="#362F72" d="M402.975,692.442c0,0-1.7-0.845-4.591-1.854c-1.243,0.276-2.215,0.729-2.799,1.408
				c-4.56,5.309-38.109,50.301-29.417,81.329c2.43,8.667,6.467,15.482,11.026,20.809c9.283,2.521,18.206,3.214,25.968,0.904
				l0.578-77.658L402.975,692.442z"/>
			<path fill="#584DA0" d="M425.507,694.187c0,0-24.613-7.442-28.632-2.762c-4.02,4.681-33.598,44.349-25.935,71.704
				c7.664,27.353,33.503,33.813,33.503,33.813L425.507,694.187z"/>
			<path fill="#584DA0" d="M412.989,768.365l57.605-0.163c0,0-29.81,25.777-66.575,25.482L412.989,768.365z"/>
			<path fill="#362F72" d="M463.306,773.661c3.95-2.705,6.433-4.74,7.092-5.294l0.045-0.165l-57.454,0.163l-2.969,6.885
				L463.306,773.661z"/>
			<polygon fill="#938BC3" points="425.861,691.525 401.253,799.83 405.193,799.417 414.548,770.13 475.639,769.486 
				476.446,763.881 415.937,763.575 432.061,695.026 			"/>
			<circle fill="#FFFFFF" cx="409.769" cy="727.576" r="12.301"/>
			<circle cx="409.769" cy="727.576" r="7.536"/>
			<circle fill="#FFFFFF" cx="412.083" cy="723.9" r="3.862"/>
			<path fill="#362F72" d="M356.063,717.641l18.329,10.262c0,0-0.23,3.324-1.349,3.555
				C371.927,731.687,356.063,717.641,356.063,717.641z"/>
			<polygon fill="#362F72" points="350.804,727.76 371.676,736.089 369.81,739.801 			"/>
			<polygon fill="#362F72" points="349.949,741.721 369.423,742.487 368.92,745.957 			"/>
		</g>
		<circle fill="#6BA6CE" cx="394.85" cy="781.929" r="2.335"/>
		<circle fill="#6BA6CE" cx="380.973" cy="754.474" r="2.336"/>
		<path fill="#6BA6CE" d="M390.571,769.982c-1.281,0.152-2.441-0.768-2.59-2.049c-0.151-1.278,0.766-2.441,2.047-2.589
			c1.28-0.152,2.44,0.768,2.59,2.047C392.768,768.673,391.854,769.832,390.571,769.982z"/>
		<path fill="#6BA6CE" d="M387.9,780.394c-2.12,0.248-4.037-1.271-4.289-3.39c-0.247-2.121,1.269-4.04,3.39-4.286
			c2.12-0.25,4.039,1.267,4.287,3.387C391.537,778.226,390.02,780.146,387.9,780.394z"/>
		<path fill="#6BA6CE" d="M384.886,770.119c-0.499,0.06-0.948-0.297-1.005-0.793c-0.06-0.496,0.296-0.948,0.793-1.005
			c0.496-0.057,0.947,0.297,1.004,0.796C385.736,769.61,385.381,770.063,384.886,770.119z"/>
		<path fill="#6BA6CE" d="M379.931,769.23c-1.76,0.207-3.355-1.054-3.561-2.813c-0.204-1.765,1.054-3.358,2.816-3.564
			c1.759-0.207,3.354,1.051,3.56,2.815C382.953,767.43,381.693,769.021,379.931,769.23z"/>
	</g>
	<g>
		<path fill="#D9D843" d="M1224.973,428.695c0,0,0.188,5.766,3.418,9.413c3.229,3.645,7.582-1.222,7.376-3.455
			c-0.311-3.36-3.206-8.187-5.273-9.006C1228.424,424.827,1224.973,428.695,1224.973,428.695z"/>
		<g>
			<g>
				<g>
					<path fill="#5A3075" d="M1162.466,454.241c-0.243-1.69-5.523-41.543,30.357-51.491c18.714-5.188,31.187,19.63,31.31,19.879
						l2.055-1.012c-0.135-0.266-13.46-26.762-33.977-21.072c-37.815,10.49-32.07,53.588-32.008,54.022L1162.466,454.241z"/>
				</g>
				<path fill="#5A3075" d="M1224.433,420.726c0,0-1.443,8.649,0.196,9.354c1.641,0.705,3.379-1.875,7.037-2.603
					C1235.327,426.75,1225.645,419.872,1224.433,420.726z"/>
			</g>
			<g>
				<g>
					<polygon fill="#B5B0D7" points="1189.517,448.764 1212.142,464.502 1188.555,459.015 					"/>
					<polygon fill="#B5B0D7" points="1188.39,465.332 1207.527,477.111 1187.741,474.843 					"/>
					<polygon fill="#B5B0D7" points="1184.83,479.717 1200.349,489.27 1184.179,489.229 					"/>
					<polygon fill="#B5B0D7" points="1243.958,501.974 1227.719,479.703 1233.733,503.162 					"/>
					<polygon fill="#B5B0D7" points="1227.422,503.467 1215.216,484.597 1217.926,504.33 					"/>
					<polygon fill="#B5B0D7" points="1213.118,507.35 1203.221,492.047 1203.624,508.21 					"/>
					<path fill="#938BC3" d="M1069.077,493.958c0,0-23.594-26.406-69.888-33.375l67.457,38.239L1069.077,493.958z"/>
					<path fill="#938BC3" d="M1009.649,538.2l57.932-35.103l1.496,6.29C1069.077,509.388,1043.915,529.094,1009.649,538.2z"/>
					<path fill="#938BC3" d="M1009.649,464.614l6.272,23.809c0,0,5.04,0.462,7.272,9.28c2.229,8.82-2.142,9.197-2.142,9.197
						l3.723,26.007l48.487-28.296l-19.841-19.486L1009.649,464.614z"/>
					<polygon fill="#938BC3" points="1104.355,525.908 1086.35,535.181 1110.592,541.125 1123.302,528.348 					"/>
					<path fill="#938BC3" d="M1150.769,444.395l-20.499-39.751v11.575c0,0-38.167,28.975-49.461,48.396l19.32,13.91
						C1100.129,478.524,1130.832,446.174,1150.769,444.395z"/>
					<polygon fill="#301B44" points="1130.688,420.492 1136.278,445.394 1130.688,446.677 					"/>
					<polygon fill="#301B44" points="1116.929,429.279 1129.324,451.589 1124.322,454.398 					"/>
					<polygon fill="#301B44" points="1105.808,439.145 1121.367,459.375 1116.839,462.894 					"/>
					<polygon fill="#301B44" points="1094.456,450.985 1113.847,467.578 1110.14,471.954 					"/>
					<polygon fill="#301B44" points="1088.052,457.691 1107.445,474.284 1103.735,478.66 					"/>
					<path fill="#5A3075" d="M1162.321,445.394c0,0-26.492-7.625-46.534,8.124s-31.372,32.047-50.946,42.967
						c0,0-3.054,8.326,2.022,13.811c0,0,74.086,45.575,110.234,29.279l-10.473-71.398L1162.321,445.394z"/>
					<path fill="#938BC3" d="M1146.305,479.717l-26.953-9.461c0,0-12.77,19.283,0,37.366l26.953-7.874V479.717z"/>
					<path fill="#301B44" d="M1162.321,445.394c0,0-1.798-0.514-4.8-1c-1.188,0.443-2.085,1.006-2.565,1.721
						c-3.751,5.573-30.507,52.022-17.505,79.182c3.635,7.59,8.595,13.229,13.857,17.422c9.532,0.894,18.447,0.165,25.789-3.145
						l-10.473-71.398L1162.321,445.394z"/>
					<path fill="#301B44" d="M1063.993,503.511c0.204,2.269,0.966,4.726,2.87,6.784c0,0,74.086,45.575,110.234,29.279l-2.668-18.194
						c-5.823-2.018-13.514-2.911-23.661-1.41C1119.347,524.614,1073.407,507.254,1063.993,503.511z"/>
					<path fill="#5A3075" d="M1184.838,443.548c0,0-25.382-3.068-28.688,1.846s-26.896,45.864-15.433,69.809
						c11.465,23.945,37.918,25.922,37.918,25.922L1184.838,443.548z"/>
					<path fill="#5A3075" d="M1183.017,513.576l56.903-8.965c0,0-25.792,28.231-62.166,33.589L1183.017,513.576z"/>
					<path fill="#301B44" d="M1233.493,510.739c3.519-3.087,5.683-5.337,6.257-5.947l0.021-0.157l-56.754,8.941l-1.956,6.778
						L1233.493,510.739z"/>
					<polygon fill="#938BC3" points="1184.807,441.049 1175.895,544.266 1179.728,543.284 1184.807,514.958 1245.087,505.02 
						1245.087,499.747 1185.248,508.727 1191.434,443.314 					"/>
					<circle fill="#FFFFFF" cx="1164.796" cy="468.177" r="12.302"/>
					<circle cx="1164.796" cy="468.177" r="7.536"/>
					<circle fill="#FFFFFF" cx="1167.11" cy="464.502" r="3.862"/>
					<path fill="#301B44" d="M1119.546,475.712l19.574,6.618c0,0,0.245,3.087-0.827,3.469S1119.546,475.712,1119.546,475.712z"/>
					<polygon fill="#301B44" points="1115.787,485.81 1137.599,490.264 1136.283,493.958 					"/>
					<polygon fill="#301B44" points="1116.929,498.76 1136.283,496.484 1136.278,499.747 					"/>
					<polygon fill="#301B44" points="1091.586,535.152 1106.714,527.629 1108.946,529.2 					"/>
					<polygon fill="#301B44" points="1111.426,530.191 1101.793,537.549 1115.56,531.391 					"/>
					<polygon fill="#301B44" points="1024.775,527.712 1064.433,505.905 1066.455,508.202 					"/>
					<polygon fill="#301B44" points="1023.633,515.229 1058.437,507.789 1023.633,520.023 					"/>
					<polygon fill="#301B44" points="1025.369,505.905 1060.172,505.557 1024.047,507.789 					"/>
					<polygon fill="#301B44" points="1023.194,491.504 1062.404,500.267 1024.775,494.314 					"/>
					<polygon fill="#301B44" points="1015.697,477.367 1063.929,497.282 1017.018,481.749 					"/>
				</g>
				<path fill="#9365AB" d="M1166.504,530.086c-1.232,0.383-2.54-0.305-2.922-1.537c-0.383-1.232,0.308-2.539,1.537-2.922
					c1.234-0.382,2.542,0.305,2.924,1.537C1168.426,528.394,1167.736,529.706,1166.504,530.086z"/>
				<path fill="#9365AB" d="M1147.831,505.643c-1.232,0.379-2.539-0.311-2.925-1.543c-0.382-1.229,0.308-2.539,1.54-2.922
					c1.229-0.382,2.54,0.308,2.922,1.537C1149.75,503.947,1149.063,505.257,1147.831,505.643z"/>
				<path fill="#9365AB" d="M1159.415,516.897c-1.229,0.383-2.54-0.307-2.919-1.539c-0.386-1.232,0.305-2.542,1.537-2.922
					c1.229-0.383,2.539,0.308,2.922,1.537C1161.337,515.206,1160.649,516.513,1159.415,516.897z"/>
				<path fill="#9365AB" d="M1158.699,527.619c-2.038,0.633-4.203-0.507-4.839-2.545c-0.63-2.038,0.507-4.203,2.548-4.836
					c2.038-0.633,4.203,0.506,4.836,2.545C1161.877,524.823,1160.737,526.988,1158.699,527.619z"/>
				<circle fill="#9365AB" cx="1153.584" cy="517.208" r="0.906"/>
				<path fill="#9365AB" d="M1148.818,518.107c-1.692,0.523-3.49-0.422-4.015-2.113c-0.524-1.697,0.418-3.493,2.112-4.021
					c1.692-0.524,3.49,0.419,4.018,2.116C1151.458,515.782,1150.513,517.58,1148.818,518.107z"/>
				<circle fill="#9365AB" cx="1123.611" cy="511.325" r="2.336"/>
				<path fill="#9365AB" d="M1096.133,503.47c-0.791,1.018-2.258,1.204-3.278,0.416s-1.209-2.256-0.421-3.276
					c0.788-1.018,2.258-1.206,3.275-0.418C1096.729,500.979,1096.921,502.446,1096.133,503.47z"/>
				<circle fill="#9365AB" cx="1110.233" cy="504.599" r="2.335"/>
				<circle fill="#9365AB" cx="1114.595" cy="512.855" r="3.865"/>
				<path fill="#9365AB" d="M1108.199,510.187c-0.305,0.396-0.873,0.47-1.268,0.162c-0.396-0.305-0.471-0.873-0.163-1.271
					c0.305-0.393,0.873-0.468,1.271-0.16C1108.433,509.223,1108.507,509.791,1108.199,510.187z"/>
				<path fill="#9365AB" d="M1091.397,508.174c-0.308,0.396-0.873,0.471-1.271,0.163c-0.396-0.305-0.468-0.873-0.163-1.271
					c0.308-0.393,0.876-0.468,1.271-0.16C1091.63,507.21,1091.702,507.778,1091.397,508.174z"/>
				<path fill="#9365AB" d="M1104.1,513.105c-1.085,1.402-3.1,1.658-4.5,0.576c-1.402-1.088-1.664-3.1-0.578-4.506
					c1.082-1.402,3.097-1.66,4.502-0.573C1104.927,509.686,1105.185,511.7,1104.1,513.105z"/>
			</g>
		</g>
	</g>
	<g>
		<path fill="#D9D843" d="M590.814,699.314c0,0,1.558,5.554-0.422,10.003c-1.98,4.448-7.598,1.121-8.073-1.072
			c-0.717-3.296,0.589-8.771,2.313-10.176C586.356,696.664,590.814,699.314,590.814,699.314z"/>
		<g>
			<path fill="#374D75" d="M658.113,704.832c-0.276-1.684-7.251-41.274-44.462-39.946c-19.408,0.692-23.82,28.115-23.865,28.392
				l-2.262-0.347c0.048-0.294,4.768-29.574,26.047-30.331c39.217-1.395,46.727,41.432,46.8,41.863L658.113,704.832z"/>
		</g>
		<path fill="#374D75" d="M588.928,691.552c0,0,3.982,7.812,2.631,8.977c-1.351,1.168-3.787-0.77-7.496-0.358
			C580.355,700.578,587.515,691.102,588.928,691.552z"/>
		<g>
			<path fill="#A0B3CC" d="M742.096,773.981l18.285,20.287c0,0-10.254-2.795-13.19-1.403c-2.938,1.396-19.262,10.435-26.093,6.891
				c-6.83-3.545-12.441-6.891-12.441-6.891L742.096,773.981z"/>
			<path fill="#A0B3CC" d="M772.993,750.936c0,0,26.182-32.882,64.796-32.879l-6.939,9.771l-17.056,69.301
				c0,0-30.106-14.955-41.667-36.539L772.993,750.936z"/>
			<path fill="#A0B3CC" d="M674.458,704.89l27.289-41.453v5.823c0,0,40.408,18.337,58.634,54.4l-14.808,19.282L674.458,704.89z"/>
			<path fill="#374D75" d="M661.426,702.409c0,0,36.931-5.867,79.145,22.462c30.998,20.799,37.658,23.473,37.658,23.473
				s6.703,14.126-0.238,18.691c0,0-34.914,13.42-60.274,25.83c-25.361,12.414-67.125,4.263-67.125,4.263L661.426,702.409z"/>
			<path fill="#253751" d="M650.592,797.128l4.498-25.247c17.972,5.128,54.802,9.091,74.056,0.042
				c19.328-9.084,42.625-11.899,51.972-12.7c0.14,3.115-0.553,6.122-3.126,7.813c0,0-34.914,13.42-60.274,25.83
				C692.355,805.279,650.592,797.128,650.592,797.128z"/>
			<polygon fill="#253751" points="709.439,678.054 694.461,699.888 705.634,674.447 			"/>
			<polygon fill="#253751" points="724.908,686.214 709.931,708.049 721.104,682.607 			"/>
			<polygon fill="#253751" points="737.208,697.132 723.93,712.608 733.402,693.525 			"/>
			<polygon fill="#253751" points="749.654,711.795 740.571,722.699 745.85,708.188 			"/>
			<polygon fill="#253751" points="740.571,781.873 750.755,790.017 747.19,790.017 			"/>
			<polygon fill="#253751" points="724.201,787.278 736.074,795.563 732.777,797.128 			"/>
			<polygon fill="#253751" points="780.368,763.495 814.442,784.066 812.663,790.017 			"/>
			<polygon fill="#253751" points="826.265,727.827 824.968,733.803 778.229,751.989 			"/>
			<polygon fill="#253751" points="821.938,748.344 820.597,753.95 783.354,755.244 			"/>
			<polygon fill="#253751" points="818.168,767.035 816.226,773.981 784.163,760.427 			"/>
			<polygon fill="#ABC6CE" points="626.621,712.379 612.492,735.497 629.996,722.263 			"/>
			<polygon fill="#ABC6CE" points="632.677,721.834 619.102,739.101 636.054,731.718 			"/>
			<polygon fill="#ABC6CE" points="639.411,737.034 630.186,756.306 644.438,746.654 			"/>
			<polygon fill="#ABC6CE" points="644.011,780.078 638.305,759.486 633.9,776.128 			"/>
			<polygon fill="#ABC6CE" points="627.211,775.754 621.771,751.68 616.021,773.816 			"/>
			<polygon fill="#ABC6CE" points="610.167,773.397 604.728,749.323 598.978,771.46 			"/>
			<polygon fill="#ABC6CE" points="594.508,776.833 584.213,742.397 583.317,774.894 			"/>
			<path fill="#ABC6CE" d="M683.213,740.424l22.719,2.602c0,0-13.021,15.771-24.467,15.205L683.213,740.424z"/>
			<path fill="#253751" d="M654.623,776.477c1.514-4.921,2.646-11.036,3.065-18.664c1.969-35.77,3.738-55.403,3.738-55.403
				s53.485,32.925,3.528,81.376c0,0-4.436,9.246-12.173,15.58c-5.958-0.234-10.998-1.157-14.569-3.04c0,0,8.293-1.303,14.106-13.777
				c1.569,0.217,3.144,0.447,4.736,0.705L654.623,776.477z"/>
			<path fill="#374D75" d="M630.019,713.309c0,0,23.313-15.885,32.94-11.829c9.628,4.059,33.69,51.179-1.938,77.813
				c0,0-7.011,14.688-18.781,19.106c0,0-48.728-7.197-57.954-19.739c0,0,31.008-6.043,69.223,0.124L630.019,713.309z"/>
			<polygon fill="#1B363F" points="658.563,779.613 655.866,785.294 586.417,779.739 			"/>
			<path fill="#A0B3CC" d="M630.277,709.074l-5.873,2.17l24.09,62.814c0,0-54.424-9.031-69.5-0.788l3.437,7.11
				c0,0,35.115-1.912,73.452,1.95l2.68-2.718L630.277,709.074z"/>
			<circle fill="#FFFFFF" cx="653.626" cy="723.586" r="12.454"/>
			<circle cx="653.626" cy="723.588" r="8.136"/>
			<circle fill="#FFFFFF" cx="649.543" cy="720.634" r="4.573"/>
			<polygon fill="#1B363F" points="700.7,746.522 684.585,743.516 697.348,748.794 			"/>
			<polygon fill="#1B363F" points="695.887,750.958 679.772,747.951 692.534,753.227 			"/>
		</g>
		<path fill="#577096" d="M662.585,766.404c1.287-0.08,2.262-1.19,2.179-2.48c-0.083-1.283-1.194-2.263-2.48-2.178
			c-1.288,0.083-2.265,1.191-2.181,2.48C660.187,765.513,661.298,766.489,662.585,766.404z"/>
		<circle fill="#577096" cx="671.14" cy="734.571" r="2.336"/>
		<circle fill="#577096" cx="664.342" cy="749.224" r="2.336"/>
		<path fill="#577096" d="M668.994,761.313c2.129-0.137,3.742-1.977,3.606-4.107c-0.137-2.129-1.974-3.743-4.104-3.606
			c-2.131,0.14-3.746,1.977-3.608,4.104C665.027,759.838,666.864,761.449,668.994,761.313z"/>
		<circle fill="#577096" cx="670.051" cy="749.761" r="0.905"/>
		<circle fill="#577096" cx="674.615" cy="745.693" r="3.21"/>
		<path fill="#577096" d="M704.365,751.963c0.08,1.287,1.191,2.261,2.48,2.178c1.284-0.082,2.263-1.193,2.178-2.479
			c-0.083-1.286-1.19-2.263-2.48-2.181C705.257,749.563,704.28,750.677,704.365,751.963z"/>
		<path fill="#577096" d="M733.867,760.669c0.086,1.287,1.196,2.261,2.485,2.178c1.287-0.082,2.264-1.193,2.178-2.479
			c-0.082-1.287-1.193-2.264-2.479-2.181C734.764,758.27,733.787,759.38,733.867,760.669z"/>
		<circle fill="#577096" cx="721.546" cy="753.719" r="2.336"/>
		<path fill="#577096" d="M709.457,758.373c0.138,2.128,1.977,3.74,4.108,3.606c2.128-0.138,3.743-1.974,3.606-4.105
			c-0.14-2.131-1.977-3.746-4.105-3.606C710.933,754.404,709.32,756.241,709.457,758.373z"/>
		<path fill="#577096" d="M695.895,766.169c0.138,2.129,1.976,3.741,4.107,3.606c2.128-0.137,3.746-1.974,3.606-4.104
			c-0.14-2.132-1.975-3.746-4.104-3.606C697.371,762.201,695.758,764.038,695.895,766.169z"/>
		<circle fill="#577096" cx="721.009" cy="759.428" r="0.905"/>
		<path fill="#577096" d="M721.873,764.198c0.113,1.77,1.641,3.113,3.41,2.997c1.77-0.117,3.11-1.641,2.997-3.41
			c-0.114-1.77-1.639-3.11-3.41-2.997C723.101,760.904,721.76,762.429,721.873,764.198z"/>
	</g>
	<g>
		<path fill="#D9D843" d="M631.728,423.113c0,0,2.336,5.274,6.697,7.443c4.361,2.167,6.571-3.976,5.54-5.969
			c-1.546-2.998-6.041-6.387-8.264-6.371C633.476,418.231,631.728,423.113,631.728,423.113z"/>
		<g>
			<path fill="#385B66" d="M583.363,470.236c-0.86-1.475-20.702-36.438,8.829-59.116c15.402-11.83,36.271,6.501,36.482,6.684
				l1.523-1.708c-0.224-0.196-22.513-19.761-39.399-6.79c-31.119,23.905-9.629,61.702-9.411,62.082L583.363,470.236z"/>
		</g>
		<path fill="#385B66" d="M628.236,415.927c0,0,1.907,8.559,3.69,8.597c1.785,0.039,2.43-3.005,5.549-5.053
			C640.595,417.425,629.04,414.682,628.236,415.927z"/>
		<g>
			<path fill="#ABC6CE" d="M521.36,541.135l-9.544,16.25c0,0,16.396,1.718,29.123-5.033l3.118-8.667L521.36,541.135z"/>
			<path fill="#ABC6CE" d="M491.025,518.313c0,0-14.095-15.396-52.618-16.373c0,0,10.426,13.95,12.322,25.203
				c0,0,6.526,3.55,6.856,10.708c0.331,7.156-4.629,5.965-4.629,5.965s-2.18,15.25-8.034,22.936c0,0,47.151-18.373,52.724-27.002
				C503.219,531.119,491.025,518.313,491.025,518.313z"/>
			<path fill="#ABC6CE" d="M545.994,421.666l17.628,32.642l-53.348,62.288C510.273,516.596,501.014,459.245,545.994,421.666z"/>
			<polygon fill="#ABC6CE" points="610.19,451.882 628.175,472.906 608.386,462.394 			"/>
			<polygon fill="#ABC6CE" points="605.613,462.394 622.095,477.609 603.808,472.906 			"/>
			<polygon fill="#ABC6CE" points="601.283,478.809 613.703,496.748 597.771,489.32 			"/>
			<polygon fill="#ABC6CE" points="603.609,522.951 606.03,501.269 613.163,517.334 			"/>
			<polygon fill="#ABC6CE" points="619.846,515.875 621.436,490.722 630.815,512.108 			"/>
			<polygon fill="#ABC6CE" points="636.649,510.742 638.239,485.589 647.618,506.976 			"/>
			<polygon fill="#ABC6CE" points="652.993,511.672 657.802,475.288 663.962,507.908 			"/>
			<path fill="#385B66" d="M573.486,447.459c0,0-24.353,3.307-38.299,22.072c-13.946,18.766-16.224,34.351-23.435,40.755
				s-20.727,8.026-20.727,8.026s-8.804,12.31,3.266,20.907c0,0,95.545,15.872,117.792-0.826c0,0-18.095,0.062-25.866-35.682
				C578.446,466.969,573.486,447.459,573.486,447.459z"/>
			<path fill="#ABC6CE" d="M557.669,489.312l-22.483,6.3c0,0,15.678,13.795,27.126,11.369L557.669,489.312z"/>
			<path fill="#1B363F" d="M589.037,512.979l-6.678-4.213c0,0-8.597,16.954-33.043,25.508c-22.159,7.756-54.582-0.052-60.458-1.581
				c0.91,2.242,2.571,4.49,5.433,6.528c0,0,95.545,15.872,117.792-0.826C612.083,538.395,597.659,538.42,589.037,512.979z"/>
			<path fill="#1B363F" d="M592.325,521.036c-2.321-4.714-4.451-10.697-6.108-18.323c-7.771-35.744-12.731-55.253-12.731-55.253
				s-48.595,41.847,9.608,82.619c0,0,5.966,8.603,14.793,13.738c5.966-1.204,10.899-2.947,14.196-5.422
				c0,0-8.573,0.028-16.451-11.61c-1.546,0.473-3.098,0.961-4.662,1.478L592.325,521.036z"/>
			<path fill="#385B66" d="M606.914,453.369c0,0-26.073-12.244-35.124-6.597s-25.688,57.049,14.541,78.139
				c0,0,9.445,13.674,22.026,16.224c0,0,47.962-15.139,55.237-29.274c0,0-32.24-1.077-69.771,11.323L606.914,453.369z"/>
			<polygon fill="#1B363F" points="588.862,524.837 592.5,530.127 661.62,513.294 			"/>
			<path fill="#5F8B9B" d="M605.969,449.142l6.272,1.24l-14.126,67.227c0,0,53.409-17.91,69.942-12.036l-2.314,7.722
				c0,0-35.712,3.754-73.74,13.85l-3.141-2.307L605.969,449.142z"/>
			<circle fill="#FFFFFF" cx="584.777" cy="467.55" r="12.717"/>
			<circle cx="584.777" cy="467.55" r="8.307"/>
			<circle fill="#FFFFFF" cx="588.415" cy="463.913" r="4.669"/>
			<path fill="#1B363F" d="M536.554,435.886l3.149-4.078c0,0,10.031,23.932,9.59,23.649
				C548.851,455.175,536.554,435.886,536.554,435.886z"/>
			<path fill="#1B363F" d="M523.977,451.47l3.492-4.011l11.017,15.876C537.987,463.172,523.977,451.47,523.977,451.47z"/>
			<path fill="#1B363F" d="M515.749,466.746l2.236-4.824l13.906,11.289C531.367,473.192,515.749,466.746,515.749,466.746z"/>
			<path fill="#1B363F" d="M511.894,483.539l0.868-5.246l11.059,5.54C523.311,483.956,511.894,483.539,511.894,483.539z"/>
			<path fill="#1B363F" d="M446.013,509.626l2.48,3.668c0,0,27.779,3.976,39.434,9.001
				C487.926,522.295,478.583,512.602,446.013,509.626z"/>
			<path fill="#1B363F" d="M452.13,521.858l2.811,5.544c0,0,20.42-2.179,32.075,2.847
				C487.016,530.249,484.701,524.834,452.13,521.858z"/>
			<polygon fill="#1B363F" points="487.016,532.444 459.074,533.863 460.066,538.063 			"/>
			<path fill="#1B363F" d="M487.926,536.105c0,0-21.412,9.143-33.151,9.933l-1.488,4.012
				C453.287,550.05,466.352,548.859,487.926,536.105z"/>
			<polygon fill="#1B363F" points="541.026,498.29 556.787,492.653 544.773,500.036 			"/>
			<polygon fill="#1B363F" points="546.596,501.981 562.357,496.345 550.343,503.73 			"/>
			<path fill="#1B363F" d="M515.123,555.92c0.331,0,10.693-16.312,10.693-16.312l-6.173,15.211L515.123,555.92z"/>
			<polygon fill="#1B363F" points="533.31,540.601 528.57,553.166 532.098,551.166 534.522,541.135 			"/>
		</g>
		<circle fill="#4A757F" cx="583.929" cy="516.268" r="2.471"/>
		<path fill="#4A757F" d="M570.324,489.251c-1.36,0.117-2.557-0.892-2.678-2.251c-0.118-1.359,0.889-2.558,2.248-2.675
			c1.36-0.12,2.557,0.887,2.676,2.248C572.691,487.932,571.684,489.131,570.324,489.251z"/>
		<path fill="#4A757F" d="M579.774,503.495c-1.36,0.119-2.558-0.889-2.672-2.25c-0.119-1.356,0.887-2.555,2.246-2.676
			c1.36-0.116,2.558,0.889,2.678,2.247C582.139,502.178,581.138,503.377,579.774,503.495z"/>
		<path fill="#4A757F" d="M576.625,514.426c-2.251,0.196-4.23-1.47-4.431-3.723c-0.196-2.248,1.466-4.231,3.717-4.428
			c2.254-0.194,4.234,1.47,4.429,3.717C580.539,512.248,578.872,514.229,576.625,514.426z"/>
		<path fill="#4A757F" d="M573.756,503.462c-0.527,0.047-0.993-0.344-1.039-0.868c-0.042-0.529,0.345-0.994,0.875-1.041
			c0.522-0.044,0.993,0.346,1.035,0.873C574.674,502.95,574.283,503.418,573.756,503.462z"/>
		<path fill="#4A757F" d="M568.543,502.366c-1.867,0.16-3.516-1.222-3.68-3.09c-0.158-1.87,1.222-3.519,3.091-3.681
			c1.872-0.163,3.519,1.219,3.678,3.092C571.795,500.556,570.417,502.201,568.543,502.366z"/>
		<path fill="#4A757F" d="M567.031,519.926c-0.155,1.356-1.382,2.327-2.738,2.167c-1.355-0.152-2.329-1.379-2.171-2.735
			c0.158-1.352,1.381-2.328,2.737-2.173C566.215,517.342,567.19,518.572,567.031,519.926z"/>
		<path fill="#4A757F" d="M535.381,527.555c-0.158,1.355-1.386,2.327-2.742,2.172c-1.355-0.157-2.328-1.382-2.171-2.738
			c0.155-1.356,1.382-2.327,2.738-2.17C534.564,524.971,535.536,526.198,535.381,527.555z"/>
		<path fill="#4A757F" d="M551.231,521.152c-0.157,1.356-1.383,2.328-2.741,2.168c-1.354-0.155-2.326-1.382-2.171-2.738
			c0.158-1.356,1.383-2.328,2.738-2.173C550.413,518.572,551.388,519.791,551.231,521.152z"/>
		<path fill="#4A757F" d="M561.307,526.428c-0.258,2.245-2.288,3.85-4.534,3.597c-2.242-0.259-3.852-2.287-3.593-4.531
			c0.261-2.248,2.287-3.853,4.53-3.594C559.958,522.157,561.565,524.188,561.307,526.428z"/>
		<path fill="#4A757F" d="M549.99,527.04c-0.06,0.527-0.535,0.907-1.058,0.845c-0.528-0.064-0.906-0.537-0.845-1.064
			c0.062-0.521,0.537-0.904,1.062-0.839C549.675,526.04,550.055,526.516,549.99,527.04z"/>
		<path fill="#4A757F" d="M547.873,531.931c-0.217,1.86-1.901,3.198-3.764,2.983c-1.864-0.22-3.202-1.901-2.988-3.764
			c0.214-1.868,1.899-3.203,3.765-2.984C546.75,528.381,548.088,530.061,547.873,531.931z"/>
	</g>
	<g>
		<g>
			<path fill="#D9D843" d="M1132.923,676.446c0,0-0.667,5.73,1.989,9.814c2.652,4.082,7.678-0.088,7.801-2.328
				c0.191-3.368-1.958-8.571-3.88-9.685C1136.906,673.129,1132.923,676.446,1132.923,676.446z"/>
			<g>
				<path fill="#4F4A80" d="M1067.326,692.469c0.008-1.708,0.677-41.902,37.634-46.437c19.274-2.366,27.942,24.025,28.029,24.292
					l2.179-0.698c-0.094-0.284-9.353-28.458-30.486-25.864c-38.95,4.784-39.64,48.257-39.645,48.696L1067.326,692.469z"/>
			</g>
			<path fill="#4F4A80" d="M1133.565,668.484c0,0-2.704,8.339-1.188,9.279c1.517,0.94,3.62-1.354,7.345-1.534
				C1143.449,676.054,1134.891,667.82,1133.565,668.484z"/>
			<path fill="#7C9BC1" d="M1039.219,678.063l-4.629-31.245c0,0-25.242,3.673-31.58,17.708c0,0-27.076,7.968-32.028,26.214
				l14.116,13.195L1039.219,678.063z"/>
			<polygon fill="#2D2B51" points="1024.639,652.863 1029.955,650.822 1031.944,678.957 			"/>
			<polygon fill="#2D2B51" points="1012.124,659.469 1017.441,657.428 1022.992,683.037 			"/>
			<polygon fill="#2D2B51" points="997.836,670.073 1003.152,668.032 1013.757,690.236 			"/>
			<polygon fill="#2D2B51" points="986.737,676.415 992.055,674.375 1004.891,694.473 			"/>
			<polygon fill="#2D2B51" points="976.021,687.519 979.554,683.683 994.269,700.438 			"/>
			<path fill="#7C9BC1" d="M947.788,711.795l-46.624-14.013c0,0-10.396,12.359-3.131,23.933c0,0-6.294,13.41,0.981,25.307
				l52.246-8.433L947.788,711.795z"/>
			<path fill="#7C9BC1" d="M986.337,746.427l-19.553,5.325c0,0,1.229,15.652,14.897,19.62l15.996-15.327L986.337,746.427z"/>
			<path fill="#4F4A80" d="M1064.293,678.957c0,0-24.994-11.036-57.991,6.521c-32.995,17.555-62.15,25.617-62.15,25.617
				s-10.182,19.298,4.856,28.324c0,0,32.186,6.807,44.113,25.112c11.93,18.304,32.848,37.856,44.041,37.092
				c11.196-0.765,26.479-63.034,26.479-63.034L1064.293,678.957z"/>
			<path fill="#2D2B51" d="M1052.357,750.039c0,0-32.979-2.697-52.044-15.457c-16.151-10.809-49.627-9.669-59.482-9.069
				c0.202,5.017,2.145,10.286,8.177,13.906c0,0,32.186,6.807,44.113,25.112c11.93,18.304,32.848,37.856,44.041,37.092
				c5.572-0.38,12.157-15.993,17.365-31.587L1052.357,750.039z"/>
			<path fill="#7C9BC1" d="M1035.594,725.156l-34.027-8.825c0,0-3.947,22.39,2.399,35.421l29.693-3.333L1035.594,725.156z"/>
			<path fill="#2D2B51" d="M1063.642,738.589l0.623-56.935c-2.437-0.71-4.013-0.818-4.013-0.818s-49.251,38.318-31.917,118.426
				c3.289,1.636,6.312,2.535,8.827,2.361C1048.358,800.858,1063.642,738.589,1063.642,738.589z"/>
			<path fill="#4F4A80" d="M1064.293,678.957c0,0-51.012,39.611-27.131,122.666c0,0,81.924,1.52,102.062-78.519l-42.489,11.478
				c0,0-2.746-29.688-11.723-42.302C1076.034,679.665,1064.293,678.957,1064.293,678.957z"/>
			<path fill="#2D2B51" d="M1138.399,726.003l-90.276,25.749l-3.673,7.662l89.979-21.46
				C1135.919,734.205,1137.234,730.204,1138.399,726.003z"/>
			<polygon fill="#7C9BC1" points="1119.918,703.936 1132.633,725.711 1123.297,729.485 			"/>
			<polygon fill="#7C9BC1" points="1103.88,710.134 1116.596,731.908 1107.26,735.683 			"/>
			<polygon fill="#7C9BC1" points="1086.851,716.711 1099.566,738.486 1090.229,742.26 			"/>
			<polygon fill="#7C9BC1" points="1075.004,727.196 1084.627,743.674 1075.29,747.447 			"/>
			<polygon fill="#7C9BC1" points="1061.115,731.903 1070.735,748.38 1061.115,749.972 			"/>
			<polygon fill="#6764A0" points="1046.989,749.326 1144.207,718.904 1140.265,728.581 1046.989,756.045 1044.45,759.414 			"/>
			<circle fill="#FFFFFF" cx="1070.445" cy="708.677" r="11.056"/>
			<path d="M1078.047,708.677c0,4.197-3.405,7.6-7.604,7.6c-4.195,0-7.6-3.402-7.6-7.6c0-4.198,3.404-7.601,7.6-7.601
				C1074.642,701.076,1078.047,704.479,1078.047,708.677z"/>
			<circle fill="#FFFFFF" cx="1072.575" cy="705.964" r="4.19"/>
			<polygon fill="#2D2B51" points="1003.067,720.756 1002.537,725.156 1031.944,728.716 			"/>
			<polygon fill="#2D2B51" points="1003.798,731.658 1003.271,736.058 1030.797,735.637 			"/>
			<polygon fill="#2D2B51" points="1003.271,742.027 1004.209,746.427 1029.955,743.402 			"/>
			<polygon fill="#2D2B51" points="969.778,754.508 970.981,756.712 990.722,749.987 			"/>
			<polygon fill="#2D2B51" points="973.325,761.196 974.528,763.402 994.269,756.676 			"/>
			<polygon fill="#2D2B51" points="901.763,701.932 900.448,706.561 939.798,713.822 			"/>
			<polygon fill="#2D2B51" points="900.332,711.19 899.015,715.819 938.364,718.796 			"/>
			<polygon fill="#2D2B51" points="898.702,725.848 898.836,730.658 938.553,725.768 			"/>
			<polygon fill="#2D2B51" points="900.117,735.109 900.252,739.92 938.68,730.942 			"/>
		</g>
		<path fill="#605F97" d="M1083.032,778.306c-0.47,1.638-2.18,2.581-3.82,2.105c-1.636-0.47-2.583-2.183-2.108-3.82
			c0.473-1.636,2.184-2.584,3.821-2.111C1082.563,774.953,1083.511,776.668,1083.032,778.306z"/>
		<path fill="#605F97" d="M1042.463,781.166c-0.475,1.638-2.188,2.578-3.825,2.107c-1.638-0.473-2.584-2.186-2.108-3.82
			c0.471-1.641,2.184-2.584,3.821-2.111C1041.988,777.813,1042.934,779.525,1042.463,781.166z"/>
		<path fill="#605F97" d="M1063.313,776.552c-0.473,1.638-2.186,2.581-3.823,2.103c-1.638-0.47-2.581-2.183-2.11-3.82
			c0.476-1.638,2.186-2.581,3.823-2.11C1062.841,773.201,1063.789,774.909,1063.313,776.552z"/>
		<path fill="#605F97" d="M1074.637,785.134c-0.783,2.713-3.614,4.271-6.327,3.493c-2.71-0.783-4.275-3.612-3.492-6.324
			c0.785-2.716,3.614-4.275,6.326-3.493C1073.859,779.593,1075.42,782.427,1074.637,785.134z"/>
		<path fill="#605F97" d="M1060.57,783.55c-0.184,0.636-0.848,1.005-1.48,0.822c-0.636-0.189-1.005-0.851-0.818-1.488
			c0.183-0.628,0.847-1.003,1.482-0.813C1060.387,782.251,1060.756,782.917,1060.57,783.55z"/>
		<path fill="#605F97" d="M1056.951,789.136c-0.651,2.247-3.005,3.549-5.255,2.9c-2.253-0.656-3.552-3.007-2.903-5.257
			c0.65-2.255,3.002-3.555,5.257-2.898C1056.3,784.529,1057.6,786.878,1056.951,789.136z"/>
		<path fill="#605F97" d="M1025.749,779.164c-1.188,0.671-2.694,0.253-3.366-0.938c-0.672-1.186-0.256-2.694,0.933-3.366
			c1.184-0.669,2.694-0.256,3.369,0.931C1027.355,776.98,1026.938,778.489,1025.749,779.164z"/>
		<path fill="#605F97" d="M1000.936,758.083c-1.188,0.672-2.694,0.248-3.371-0.935c-0.669-1.188-0.253-2.694,0.936-3.369
			c1.186-0.674,2.694-0.253,3.368,0.933C1002.543,755.9,1002.124,757.409,1000.936,758.083z"/>
		<path fill="#605F97" d="M1015.449,767.117c-1.188,0.672-2.694,0.253-3.366-0.938c-0.672-1.186-0.256-2.692,0.933-3.366
			c1.188-0.672,2.694-0.256,3.369,0.933C1017.054,764.938,1016.641,766.443,1015.449,767.117z"/>
		<path fill="#605F97" d="M1017.121,778.368c-1.967,1.113-4.457,0.421-5.575-1.545c-1.113-1.966-0.421-4.462,1.542-5.575
			c1.971-1.11,4.464-0.421,5.572,1.545C1019.776,774.762,1019.087,777.255,1017.121,778.368z"/>
		<path fill="#605F97" d="M1009.96,769.584c-0.46,0.262-1.049,0.102-1.305-0.358c-0.259-0.465-0.101-1.047,0.361-1.308
			c0.457-0.256,1.046-0.101,1.308,0.362C1010.582,768.742,1010.422,769.329,1009.96,769.584z"/>
		<path fill="#605F97" d="M1004.762,770.755c-1.63,0.922-3.707,0.349-4.629-1.284c-0.92-1.633-0.35-3.707,1.281-4.629
			c1.638-0.931,3.707-0.354,4.632,1.281C1006.966,767.758,1006.397,769.827,1004.762,770.755z"/>
	</g>
	<g>
		<path fill="#D9D843" d="M1106.539,211.208c0,0-0.667,5.73,1.988,9.813c2.656,4.082,7.681-0.086,7.805-2.328
			c0.191-3.368-1.958-8.57-3.883-9.685C1110.524,207.892,1106.539,211.208,1106.539,211.208z"/>
		<g>
			<path fill="#416777" d="M1040.941,227.23c0.008-1.708,0.68-41.903,37.635-46.436c19.277-2.366,27.941,24.025,28.029,24.29
				l2.181-0.697c-0.093-0.283-9.354-28.458-30.489-25.863c-38.946,4.783-39.637,48.257-39.642,48.695L1040.941,227.23z"/>
		</g>
		<path fill="#416777" d="M1107.182,203.245c0,0-2.705,8.34-1.188,9.281c1.52,0.939,3.62-1.355,7.348-1.535
			C1117.065,210.814,1108.507,202.582,1107.182,203.245z"/>
		<path fill="#7C9BC1" d="M997.849,218.266l-16.226-27.101c0,0-21.918,13.046-22.408,28.438c0,0-21.972,17.715-19.572,36.467
			l18.089,6.795L997.849,218.266z"/>
		<polygon fill="#21344F" points="974.74,200.555 978.871,196.636 991.468,221.873 		"/>
		<polygon fill="#21344F" points="965.701,211.443 969.835,207.524 984.756,229.064 		"/>
		<polygon fill="#21344F" points="956.554,226.705 960.688,222.787 978.975,239.248 		"/>
		<polygon fill="#21344F" points="948.724,236.811 952.856,232.892 972.405,246.554 		"/>
		<polygon fill="#21344F" points="943.068,251.167 944.864,246.271 964.869,256.128 		"/>
		<path fill="#7C9BC1" d="M927.375,278.541l-46.625-14.015c0,0-10.396,12.361-3.131,23.935c0,0-6.293,13.41,0.981,25.304
			l52.246-8.43L927.375,278.541z"/>
		<path fill="#7C9BC1" d="M962.991,309.283l-16.649,11.558c0,0,6.391,14.337,20.6,13.508l9.954-19.789L962.991,309.283z"/>
		<path fill="#385A70" d="M1042.226,323.086c0,0-23.692,13.888-61.755-1.984c-34.496-14.384-58.387-15.655-58.387-15.655
			s-10.184-19.297,4.856-28.324c0,0,21.295-7.946,33.222-26.25c11.931-18.306,31.528-47.531,82.063-43.952
			c11.191,0.793-0.651,71.031-0.651,71.031L1042.226,323.086z"/>
		<path fill="#21344F" d="M1030.495,327.17l-14.276-35.829c0,0-40.342,9.589-57.02,8.598c-15.149-0.902-36.599-5.652-40.412-6.516
			c0.416,6.505,3.297,12.023,3.297,12.023s23.891,1.271,58.387,15.655C1002.636,330.346,1019.916,329.493,1030.495,327.17z"/>
		<path fill="#7C9BC1" d="M1013.524,252.36l-34.025-8.825c0,0-3.95,22.392,2.4,35.422l29.692-3.333L1013.524,252.36z"/>
		<path fill="#21344F" d="M1041.574,265.795l0.62-56.935c-2.433-0.712-4.012-0.819-4.012-0.819s-49.252,38.319-31.915,118.424
			c3.286,1.638,6.312,2.537,8.828,2.361C1026.289,328.062,1041.574,265.795,1041.574,265.795z"/>
		<path fill="#385A70" d="M1042.226,206.162c0,0-51.011,39.61-27.13,122.665c0,0,81.921,1.519,102.061-78.517l-42.488,11.478
			c0,0-2.749-29.689-11.727-42.304C1053.965,206.87,1042.226,206.162,1042.226,206.162z"/>
		<path fill="#21344F" d="M1116.332,253.209l-90.275,25.748l-3.674,7.663l89.977-21.463
			C1113.852,261.411,1115.167,257.409,1116.332,253.209z"/>
		<polygon fill="#7C9BC1" points="1097.851,231.141 1110.566,252.917 1101.229,256.691 		"/>
		<polygon fill="#7C9BC1" points="1081.813,237.338 1094.528,259.114 1085.192,262.889 		"/>
		<polygon fill="#7C9BC1" points="1064.783,243.915 1077.499,265.691 1068.163,269.466 		"/>
		<polygon fill="#7C9BC1" points="1052.937,254.401 1062.557,270.879 1053.221,274.653 		"/>
		<polygon fill="#7C9BC1" points="1039.046,259.108 1048.669,275.586 1039.046,277.177 		"/>
		<polygon fill="#4C7387" points="1024.922,276.531 1122.14,246.11 1118.197,255.787 1024.922,283.251 1022.383,286.62 		"/>
		<circle fill="#FFFFFF" cx="1048.376" cy="235.882" r="11.054"/>
		<circle cx="1048.376" cy="235.882" r="7.6"/>
		<circle fill="#FFFFFF" cx="1050.508" cy="233.169" r="4.19"/>
		<polygon fill="#21344F" points="980.997,247.962 980.471,252.36 1009.877,255.92 		"/>
		<polygon fill="#21344F" points="981.731,258.864 981.201,263.261 1008.729,262.842 		"/>
		<polygon fill="#21344F" points="981.201,269.233 982.142,273.63 1007.888,270.608 		"/>
		<polygon fill="#21344F" points="950.085,322.435 951.958,324.112 968.313,311.177 		"/>
		<polygon fill="#21344F" points="955.665,327.556 957.535,329.232 973.894,316.294 		"/>
		<polygon fill="#21344F" points="881.35,268.675 880.032,273.305 919.382,280.569 		"/>
		<polygon fill="#21344F" points="879.916,277.934 878.601,282.563 917.95,285.54 		"/>
		<polygon fill="#21344F" points="878.288,292.592 878.423,297.402 918.137,292.515 		"/>
		<polygon fill="#21344F" points="879.701,301.856 879.836,306.667 918.263,297.687 		"/>
		<path fill="#547E91" d="M1060.572,305.93c-0.47,1.638-2.18,2.581-3.82,2.105c-1.635-0.47-2.583-2.183-2.108-3.821
			c0.474-1.635,2.184-2.583,3.821-2.111S1061.051,304.292,1060.572,305.93z"/>
		<path fill="#547E91" d="M1020.004,308.79c-0.476,1.638-2.188,2.578-3.826,2.108c-1.638-0.473-2.583-2.186-2.108-3.821
			c0.471-1.641,2.184-2.583,3.821-2.111C1019.528,305.437,1020.474,307.149,1020.004,308.79z"/>
		<path fill="#547E91" d="M1040.854,304.176c-0.473,1.638-2.186,2.581-3.823,2.103c-1.638-0.47-2.58-2.183-2.11-3.821
			c0.476-1.638,2.186-2.581,3.823-2.11C1040.381,300.825,1041.329,302.533,1040.854,304.176z"/>
		<path fill="#547E91" d="M1052.177,312.758c-0.782,2.712-3.614,4.271-6.326,3.493c-2.71-0.783-4.276-3.611-3.493-6.324
			c0.785-2.715,3.614-4.276,6.327-3.493C1051.399,307.217,1052.96,310.051,1052.177,312.758z"/>
		<path fill="#547E91" d="M1038.11,311.174c-0.184,0.635-0.848,1.005-1.48,0.821c-0.636-0.188-1.005-0.85-0.818-1.488
			c0.183-0.628,0.847-1.002,1.482-0.814C1037.927,309.875,1038.297,310.542,1038.11,311.174z"/>
		<path fill="#547E91" d="M1034.491,316.76c-0.651,2.247-3.005,3.549-5.255,2.901c-2.252-0.656-3.552-3.007-2.903-5.257
			c0.651-2.255,3.002-3.555,5.257-2.898C1033.84,312.153,1035.14,314.501,1034.491,316.76z"/>
		<path fill="#547E91" d="M998.381,314.675c-1.188,0.672-2.694,0.253-3.366-0.938c-0.672-1.186-0.256-2.694,0.933-3.366
			c1.184-0.669,2.694-0.256,3.369,0.93C999.987,312.492,999.569,314,998.381,314.675z"/>
		<path fill="#547E91" d="M973.567,293.595c-1.188,0.671-2.694,0.248-3.371-0.936c-0.669-1.188-0.253-2.694,0.936-3.369
			c1.186-0.674,2.694-0.253,3.368,0.933C975.175,291.412,974.756,292.92,973.567,293.595z"/>
		<path fill="#547E91" d="M988.081,302.628c-1.188,0.672-2.694,0.253-3.366-0.938c-0.672-1.186-0.256-2.692,0.933-3.366
			c1.188-0.672,2.694-0.256,3.369,0.933C989.686,300.448,989.271,301.954,988.081,302.628z"/>
		<path fill="#547E91" d="M989.752,313.879c-1.966,1.114-4.456,0.421-5.574-1.545c-1.113-1.966-0.421-4.461,1.542-5.575
			c1.972-1.111,4.464-0.421,5.572,1.545C992.408,310.272,991.719,312.766,989.752,313.879z"/>
		<path fill="#547E91" d="M982.592,305.096c-0.46,0.261-1.049,0.101-1.305-0.359c-0.259-0.465-0.102-1.046,0.361-1.307
			c0.457-0.255,1.046-0.101,1.308,0.362C983.214,304.253,983.054,304.84,982.592,305.096z"/>
		<path fill="#547E91" d="M977.394,306.266c-1.63,0.922-3.707,0.349-4.629-1.284c-0.92-1.633-0.349-3.707,1.281-4.629
			c1.638-0.93,3.707-0.354,4.632,1.281C979.598,303.269,979.029,305.338,977.394,306.266z"/>
	</g>
</g>
</svg>
